<svg width="32" height="32" viewBox="0 0 32 32" fill="none" xmlns="http://www.w3.org/2000/svg">
<path d="M10.7001 7.44444C9.82453 7.44444 9.11119 8.12222 9.11119 8.95444V23.0444C9.11119 23.8778 9.82453 24.5544 10.7001 24.5544H21.3001C22.1756 24.5544 22.889 23.8767 22.889 23.0444V8.95556C22.889 8.12222 22.1756 7.44556 21.3001 7.44556H10.7001V7.44444ZM21.5556 26H10.4445C8.9123 26 7.66675 24.8189 7.66675 23.3689V8.63111C7.66675 7.18111 8.9123 6 10.4445 6H21.5556C23.0879 6 24.3334 7.18111 24.3334 8.63111V23.3689C24.3334 24.8189 23.0879 26 21.5556 26Z" fill="black"/>
<path d="M18.5001 15.1667H16.8334V13.5C16.8334 13.279 16.7456 13.067 16.5893 12.9108C16.4331 12.7545 16.2211 12.6667 16.0001 12.6667C15.7791 12.6667 15.5671 12.7545 15.4108 12.9108C15.2545 13.067 15.1667 13.279 15.1667 13.5V15.1667H13.5001C13.2791 15.1667 13.0671 15.2545 12.9108 15.4108C12.7545 15.567 12.6667 15.779 12.6667 16C12.6667 16.221 12.7545 16.433 12.9108 16.5893C13.0671 16.7456 13.2791 16.8334 13.5001 16.8334H15.1667V18.5C15.1667 18.721 15.2545 18.933 15.4108 19.0893C15.5671 19.2456 15.7791 19.3334 16.0001 19.3334C16.2211 19.3334 16.4331 19.2456 16.5893 19.0893C16.7456 18.933 16.8334 18.721 16.8334 18.5V16.8334H18.5001C18.7211 16.8334 18.9331 16.7456 19.0893 16.5893C19.2456 16.433 19.3334 16.221 19.3334 16C19.3334 15.779 19.2456 15.567 19.0893 15.4108C18.9331 15.2545 18.7211 15.1667 18.5001 15.1667Z" fill="black"/>
</svg>
