<svg width="33" height="32" viewBox="0 0 33 32" fill="none" xmlns="http://www.w3.org/2000/svg">
<g clip-path="url(#clip0)">
<path d="M24.7158 9.26318H7.29016C6.53426 9.26318 5.89771 9.80213 5.89771 10.4421C5.89771 11.0821 6.53426 11.6211 7.29016 11.6211H24.7158C25.4717 11.6211 26.1082 11.0821 26.1082 10.4421C26.1082 9.80213 25.4717 9.26318 24.7158 9.26318Z" fill="#171B1E"/>
<path d="M24.7158 14.821H7.29016C6.53426 14.821 5.89771 15.36 5.89771 16C5.89771 16.64 6.53426 17.1789 7.29016 17.1789H24.7158C25.4717 17.1789 26.1082 16.64 26.1082 16C26.1082 15.36 25.4717 14.821 24.7158 14.821Z" fill="#171B1E"/>
<path d="M26.1082 21.5579C26.1082 20.9179 25.4717 20.379 24.7158 20.379H7.29016C6.53426 20.379 5.89771 20.9179 5.89771 21.5579C5.89771 22.1979 6.53426 22.7369 7.29016 22.7369H24.7158C25.4717 22.7369 26.1082 22.1979 26.1082 21.5579Z" fill="#171B1E"/>
</g>
<defs>
<clipPath id="clip0">
<rect width="20.2105" height="13.4737" fill="white" transform="translate(5.89771 9.26318)"/>
</clipPath>
</defs>
</svg>