<svg width="24" height="25" viewBox="0 0 24 25" fill="none" xmlns="http://www.w3.org/2000/svg">
<path d="M19.9207 5.09375H18.1523V7.61797C18.1523 8.44414 17.5195 9.10156 16.725 9.10156H16.275C15.4805 9.10156 14.8477 8.44063 14.8477 7.61797V5.09375H9.43359V7.61797C9.43359 8.44414 8.79023 9.10156 7.9957 9.10156H7.5457C6.75117 9.10156 6.09375 8.44063 6.09375 7.61797V5.09375H4.0793C3.48516 5.09375 3 5.61406 3 6.2293V20.6363C3 21.2516 3.48516 21.7578 4.0793 21.7578H19.9207C20.5148 21.7578 21 21.2516 21 20.6363V6.2293C21 5.61406 20.5148 5.09375 19.9207 5.09375ZM19.4883 19.4199C19.4883 19.8559 19.1332 20.2109 18.6973 20.2109H5.30273C4.8668 20.2109 4.51172 19.8559 4.51172 19.4199V11.334C4.51172 10.898 4.8668 10.543 5.30273 10.543H18.6973C19.1332 10.543 19.4883 10.898 19.4883 11.334V19.4199Z" fill="#171B1E"/>
<path d="M7.5457 8.46875H7.9957C8.44219 8.46875 8.80078 8.08203 8.80078 7.61797V4.60156C8.80078 4.1375 8.44219 3.75781 7.9957 3.75781H7.5457C7.09922 3.75781 6.72656 4.13398 6.72656 4.60156V7.61797C6.72656 8.08203 7.09922 8.46875 7.5457 8.46875Z" fill="#171B1E"/>
<path d="M16.275 8.46875H16.725C17.1715 8.46875 17.5195 8.08203 17.5195 7.61797V4.59805C17.5195 4.13398 17.1715 3.75781 16.725 3.75781H16.275C15.8285 3.75781 15.4805 4.13398 15.4805 4.59805V7.61445C15.4805 8.08203 15.8285 8.46875 16.275 8.46875Z" fill="#171B1E"/>
<path d="M8.97656 12.0898H5.8125V14.7617H8.97656V12.0898Z" fill="#171B1E"/>
<path d="M8.97656 15.9922H5.8125V18.6641H8.97656V15.9922Z" fill="#171B1E"/>
<path d="M13.582 12.0898H10.418V14.7617H13.582V12.0898Z" fill="#171B1E"/>
<path d="M13.582 15.9922H10.418V18.6641H13.582V15.9922Z" fill="#171B1E"/>
<path d="M18.293 12.0898H15.1289V14.7617H18.293V12.0898Z" fill="#171B1E"/>
<path d="M18.293 15.9922H15.1289V18.6641H18.293V15.9922Z" fill="#171B1E"/>
</svg>
