<svg width="12" height="13" viewBox="0 0 12 13" fill="none" xmlns="http://www.w3.org/2000/svg">
<path d="M7.76282 6.74544L11.5424 2.96583C12.097 2.41123 12.1543 1.56057 11.6687 1.07702C11.1832 0.593462 10.3345 0.646752 9.77992 1.20136L6.00032 4.98096L2.21874 1.20136C1.66611 0.646752 0.815451 0.589515 0.329924 1.07504C-0.155602 1.56057 -0.0983652 2.41123 0.45624 2.96583L4.23585 6.74544L0.45624 10.525C-0.0983652 11.0796 -0.155602 11.9303 0.329924 12.4139C0.815451 12.8974 1.66611 12.8421 2.21874 12.2875L6.00032 8.50794L9.77992 12.2875C10.3345 12.8421 11.1852 12.8994 11.6687 12.4139C12.1523 11.9283 12.097 11.0777 11.5424 10.525L7.76282 6.74544Z" fill="#171B1E"/>
</svg>