<svg width="25" height="25" viewBox="0 0 25 25" fill="none" xmlns="http://www.w3.org/2000/svg">
<path d="M24.5028 12.5014C24.5028 15.1184 23.6644 17.5396 22.2415 19.5114C20.0629 22.5338 16.511 24.5 12.5014 24.5C8.49173 24.5 4.93985 22.5338 2.76129 19.5114C1.33833 17.5396 0.5 15.1184 0.5 12.5014C0.5 5.87194 5.8747 0.5 12.5014 0.5C19.1281 0.5 24.5028 5.87194 24.5028 12.5014Z" fill="#1E6793"/>
<path d="M14.6929 8.66321V9.19369C16.3099 10.0405 17.4121 11.7341 17.4121 13.687C17.4121 14.7932 17.0585 15.8168 16.4573 16.6499C15.5378 17.927 14.0347 18.758 12.3411 18.758C10.6475 18.758 9.14647 17.927 8.22501 16.6499C7.6238 15.8168 7.27014 14.7932 7.27014 13.687C7.27014 11.7341 8.37236 10.0405 9.98934 9.19369V8.66321C8.10319 9.54734 6.79468 11.4649 6.79468 13.687C6.79468 14.8973 7.18173 16.0153 7.83992 16.9269C8.84587 18.3238 10.4884 19.2315 12.3411 19.2315C14.1939 19.2315 15.8364 18.3238 16.8424 16.9269C17.5005 16.0153 17.8876 14.8973 17.8876 13.687C17.8876 11.4649 16.581 9.54734 14.6929 8.66321Z" fill="#FFF4C6"/>
<path d="M14.693 8.66326H14.3982V9.37253L14.5554 9.45505C16.0781 10.2547 17.1155 11.8481 17.1155 13.6871C17.1155 14.7304 16.7815 15.6911 16.2156 16.477C15.3472 17.6795 13.9346 18.4634 12.3392 18.4634C10.7419 18.4634 9.33119 17.6814 8.46277 16.477C7.89693 15.6911 7.56292 14.7304 7.56292 13.6871C7.56292 11.8481 8.60227 10.2527 10.1249 9.45505L10.2821 9.37253V8.20155L9.86167 8.39802C7.87728 9.32735 6.5 11.3471 6.5 13.6871C6.5 14.9603 6.90867 16.1391 7.60025 17.0999C8.65925 18.5695 10.3902 19.5283 12.3412 19.5283C14.2922 19.5283 16.0211 18.5714 17.0821 17.0999C17.7737 16.1411 18.1823 14.9603 18.1823 13.6871C18.1823 11.3471 16.8051 9.32734 14.8187 8.39606L14.3982 8.19958V8.66326H14.693L14.5672 8.93047C16.3532 9.76745 17.5909 11.5829 17.5909 13.6871C17.5909 14.8325 17.2235 15.8915 16.6007 16.7541C15.6459 18.0783 14.0937 18.9369 12.3392 18.9369C10.5847 18.9369 9.03058 18.0763 8.07769 16.7541C7.45486 15.8915 7.08942 14.8325 7.08746 13.6871C7.08746 11.5829 8.32524 9.76745 10.1112 8.93047L9.98545 8.66326H9.69074V9.19374H9.98545L9.84791 8.93243C8.13859 9.82835 6.97154 11.6222 6.97154 13.6871C6.97154 14.8561 7.3468 15.9407 7.98338 16.8209C8.95592 18.1706 10.5454 19.0508 12.3392 19.0508C14.131 19.0508 15.7205 18.1706 16.695 16.8209C17.3316 15.9407 17.7069 14.8561 17.7069 13.6871C17.7069 11.6222 16.5398 9.82835 14.8305 8.93243L14.693 9.19374H14.9877V8.66326H14.693L14.5672 8.93047L14.693 8.66326Z" fill="#FFF4C6"/>
<path d="M12.3411 15.0152C11.4885 15.0152 10.7988 14.3256 10.7988 13.4729V7.04232C10.7988 6.18962 11.4885 5.5 12.3411 5.5C13.1938 5.5 13.8835 6.18962 13.8835 7.04232V13.4709C13.8835 14.3236 13.1938 15.0152 12.3411 15.0152Z" fill="#FECC00"/>
</svg>
