<svg width="64" height="65" viewBox="0 0 64 65" fill="none" xmlns="http://www.w3.org/2000/svg">
<path d="M31.9999 60.278C47.1261 60.278 59.3884 48.0158 59.3884 32.8895C59.3884 17.7632 47.1261 5.50098 31.9999 5.50098C16.8736 5.50098 4.61133 17.7632 4.61133 32.8895C4.61133 48.0158 16.8736 60.278 31.9999 60.278Z" fill="#FFF4C6"/>
<path d="M9.67434 11.3609C10.7824 11.3609 11.6807 10.4626 11.6807 9.35451C11.6807 8.24643 10.7824 7.34814 9.67434 7.34814C8.56625 7.34814 7.66797 8.24643 7.66797 9.35451C7.66797 10.4626 8.56625 11.3609 9.67434 11.3609Z" fill="#1E6793"/>
<path d="M36.9359 15.2464C37.8681 15.2464 38.6238 14.4907 38.6238 13.5585C38.6238 12.6263 37.8681 11.8706 36.9359 11.8706C36.0037 11.8706 35.248 12.6263 35.248 13.5585C35.248 14.4907 36.0037 15.2464 36.9359 15.2464Z" fill="#FFCB00"/>
<path d="M55.5341 20.0233C56.9412 20.0233 58.0819 18.8826 58.0819 17.4755C58.0819 16.0684 56.9412 14.9277 55.5341 14.9277C54.127 14.9277 52.9863 16.0684 52.9863 17.4755C52.9863 18.8826 54.127 20.0233 55.5341 20.0233Z" fill="#1E6793"/>
<path d="M59.7075 16.2973C60.411 16.2973 60.9814 15.7269 60.9814 15.0234C60.9814 14.3199 60.411 13.7495 59.7075 13.7495C59.0039 13.7495 58.4336 14.3199 58.4336 15.0234C58.4336 15.7269 59.0039 16.2973 59.7075 16.2973Z" fill="#FFCB00"/>
<path d="M60.727 36.4565C61.4306 36.4565 62.0009 35.8861 62.0009 35.1826C62.0009 34.479 61.4306 33.9087 60.727 33.9087C60.0235 33.9087 59.4531 34.479 59.4531 35.1826C59.4531 35.8861 60.0235 36.4565 60.727 36.4565Z" fill="#FFCB00"/>
<path d="M2.19108 21.5521L3.71975 21.9343L4.89809 20.8833L5.02548 22.4438L6.36306 23.24L4.92994 23.8451L4.57962 25.3737L3.56051 24.1636L2 24.3228L2.82803 22.9852L2.19108 21.5521Z" fill="#FECC00"/>
<path d="M59.1977 43.9722L60.185 44.1952L60.9174 43.5264L61.013 44.5136L61.8729 45.0232L60.9493 45.4053L60.7264 46.3926L60.0894 45.6283L59.0703 45.7238L59.6117 44.8639L59.1977 43.9722Z" fill="#1E6793"/>
<path d="M50.0555 35.6919H13.9409C13.5587 35.6919 13.2402 36.0104 13.2402 36.3925V57.6346C13.2402 58.0167 13.5587 58.3352 13.9409 58.3352H50.0555C50.4377 58.3352 50.7562 58.0167 50.7562 57.6346V36.3607C50.7562 35.9785 50.4377 35.6919 50.0555 35.6919Z" fill="#1E6793"/>
<path d="M50.0555 35.6919H13.9409C13.5587 35.6919 13.2402 36.0104 13.2402 36.3925V39.1314H50.7243V36.3925C50.7562 35.9785 50.4377 35.6919 50.0555 35.6919Z" fill="#064156"/>
<path d="M35.5019 35.6919H28.4956C28.1134 35.6919 27.7949 36.0104 27.7949 36.3925V57.6346C27.7949 58.0167 28.1134 58.3352 28.4956 58.3352H35.5019C35.8841 58.3352 36.2026 58.0167 36.2026 57.6346V36.3607C36.1707 35.9785 35.8841 35.6919 35.5019 35.6919Z" fill="#FFCB00"/>
<path d="M35.5019 35.6919H28.4956C28.1134 35.6919 27.7949 36.0104 27.7949 36.3925V39.1314H36.1707V36.3925C36.1707 35.9785 35.8841 35.6919 35.5019 35.6919Z" fill="#EBBB00"/>
<path d="M48.7182 23.0168C48.0494 21.2652 46.9985 19.5454 45.8838 18.4308C45.4698 18.0168 44.9284 17.8257 44.3233 17.8257C42.2532 17.8894 38.9093 20.469 34.3551 25.5008C34.2278 25.6282 34.1641 25.7875 34.1641 25.9467V29.5773C34.1641 29.9594 34.4825 30.2779 34.8647 30.2779H45.4061C47.7628 30.2779 48.7182 29.1314 49.1322 28.176C49.6418 26.9021 49.5144 25.0868 48.7182 23.0168Z" fill="#FFCB00"/>
<path d="M49.1328 24.2271C49.101 24.1634 49.0691 24.0997 49.0373 24.036C48.0182 22.4755 45.757 23.0487 44.0691 23.8131C39.1647 26.0424 37.1265 29.0997 37.0309 29.2271C36.9035 29.45 36.8717 29.7048 36.9991 29.9277C37.1265 30.1506 37.3494 30.278 37.6042 30.278H45.4067C46.9035 30.278 48.0182 29.8322 48.687 28.9086C49.515 27.8576 49.6742 26.2334 49.1328 24.2271Z" fill="#EF9325"/>
<path d="M29.6423 25.5326C25.0882 20.4689 21.7442 17.8893 19.6741 17.8574C19.0372 17.8574 18.4958 18.0485 18.1136 18.4625C16.999 19.5772 15.948 21.2969 15.2792 23.0485C14.4831 25.0867 14.3557 26.9339 14.8971 28.2077C15.3111 29.1632 16.2665 30.3097 18.6232 30.3097H29.1646C29.5467 30.3097 29.8652 29.9912 29.8652 29.609V25.9784C29.8015 25.8192 29.7378 25.66 29.6423 25.5326Z" fill="#FFCB00"/>
<path d="M26.9676 29.2271C26.8721 29.0997 24.8657 26.0424 19.9294 23.8131C18.2415 23.0487 16.0122 22.4755 14.9612 24.036C14.9294 24.0997 14.8975 24.1634 14.8657 24.2271C14.3243 26.2334 14.4517 27.8576 15.2797 28.9404C15.9803 29.8322 17.0631 30.3099 18.56 30.3099H26.3625C26.6173 30.3099 26.8402 30.1825 26.9676 29.9596C27.1268 29.7048 27.095 29.45 26.9676 29.2271Z" fill="#EF9325"/>
<path d="M34.8648 24.6089H29.1323C28.7501 24.6089 28.4316 24.9274 28.4316 25.3095V29.6089C28.4316 29.9911 28.7501 30.3095 29.1323 30.3095H34.8648C35.2469 30.3095 35.5654 29.9911 35.5654 29.6089V25.3095C35.5654 24.9274 35.2469 24.6089 34.8648 24.6089Z" fill="#EBBB00"/>
<path d="M53.0182 28.9404H10.9799C10.5978 28.9404 10.2793 29.2589 10.2793 29.6411V36.3927C10.2793 36.7748 10.5978 37.0933 10.9799 37.0933H52.9863C53.3685 37.0933 53.6869 36.7748 53.6869 36.3927V29.6092C53.6869 29.2271 53.4003 28.9404 53.0182 28.9404Z" fill="#1E6793"/>
<path d="M37.2537 28.9404H26.7441V37.0614H37.2537V28.9404Z" fill="#FFCB00"/>
</svg>
