<svg width="16" height="16" viewBox="0 0 16 16" fill="none" xmlns="http://www.w3.org/2000/svg">
<path fill-rule="evenodd" clip-rule="evenodd" d="M15.2419 12.1898H15.242L9.5394 2.40886H9.53924C9.24752 1.90804 8.7116 1.6 8.13201 1.6C7.55242 1.6 7.0165 1.90804 6.72478 2.40886H6.72464L1.03599 12.1657L1.03539 12.1667L1.02199 12.1897H1.02213C0.728022 12.6937 0.725814 13.3166 1.01634 13.8227C1.30687 14.3288 1.8458 14.641 2.42938 14.6412H13.8347C14.4182 14.641 14.9571 14.3288 15.2476 13.8227C15.5381 13.3166 15.536 12.6938 15.2419 12.1898ZM10.6521 11.9996C10.5264 12.1253 10.3559 12.196 10.1781 12.196C10.0004 12.196 9.82991 12.1253 9.70424 11.9996L8.13181 10.4264L6.55939 11.9996C6.39049 12.1713 6.14244 12.2392 5.90962 12.1775C5.6768 12.1157 5.49501 11.9338 5.43341 11.701C5.37182 11.4681 5.43989 11.2201 5.61173 11.0513L7.18411 9.4783L5.66763 7.96107C5.40871 7.69883 5.41001 7.27676 5.67054 7.01612C5.93107 6.75548 6.35313 6.754 6.61548 7.0128L8.13193 8.53003L9.64836 7.0128C9.81721 6.84084 10.0654 6.77275 10.2983 6.83446C10.5313 6.89617 10.7132 7.07818 10.7748 7.31118C10.8364 7.54418 10.7682 7.79231 10.5961 7.96107L9.07967 9.4783L10.6521 11.0513C10.9137 11.3132 10.9137 11.7376 10.6521 11.9996Z" fill="#D3422F"/>
</svg>
