<svg width="25" height="25" viewBox="0 0 25 25" fill="none" xmlns="http://www.w3.org/2000/svg">
<path d="M24.5028 12.5014C24.5028 15.1184 23.6644 17.5396 22.2415 19.5114C20.0629 22.5338 16.511 24.5 12.5014 24.5C8.49173 24.5 4.93985 22.5338 2.76129 19.5114C1.33833 17.5396 0.5 15.1184 0.5 12.5014C0.5 5.87194 5.8747 0.5 12.5014 0.5C19.1281 0.5 24.5028 5.87194 24.5028 12.5014Z" fill="#1E6793"/>
<path d="M15.933 11.2909H12.7809V8.69859C12.7809 8.33401 12.4779 8.03808 12.1045 8.03808C11.7311 8.03808 11.428 8.33401 11.428 8.69859V11.9538C11.428 12.3184 11.7311 12.6143 12.1045 12.6143H15.933C16.3088 12.6143 16.6094 12.3184 16.6094 11.9538C16.6094 11.5868 16.3088 11.2909 15.933 11.2909ZM12.1045 5.71802C8.58392 5.71802 5.71802 8.51393 5.71802 11.9538C5.71802 14.1531 6.89396 16.0873 8.66151 17.1976L9.64591 16.2364C8.11354 15.3936 7.07096 13.7909 7.07096 11.9538C7.07096 9.24309 9.32828 7.03903 12.1045 7.03903C14.8782 7.03903 17.1356 9.24309 17.1356 11.9538H17.7878L17.9066 11.3383L17.9769 10.7937C18.0036 10.5807 18.1006 10.3937 18.2412 10.2469C17.4774 7.63562 15.0189 5.71802 12.1045 5.71802Z" fill="#FFF4C6"/>
<path d="M19.2848 12.0892L19.2517 12.5038C19.2352 12.7476 19.2163 13.0255 19.1454 13.3262L19.0604 13.7864L18.9068 14.308C18.8478 14.5518 18.7415 14.8024 18.6399 15.0438C18.5927 15.1532 18.5454 15.2625 18.5029 15.3764C18.4982 15.3901 18.4911 15.4015 18.484 15.4152C18.4368 15.504 18.3872 15.5951 18.3399 15.6885C18.1982 15.9573 18.0541 16.233 17.8628 16.4995C17.6904 16.782 17.4613 17.0576 17.2416 17.3242L17.081 17.5224C17.0739 17.5292 17.0668 17.5383 17.0597 17.5451L16.8802 17.7274C16.6345 17.978 16.3818 18.2354 16.0913 18.4586C15.8551 18.6728 15.5787 18.8573 15.3141 19.0373C15.2244 19.0942 15.137 19.1534 15.052 19.215C15.0401 19.2218 15.0283 19.2286 15.0165 19.2355C14.9079 19.2924 14.7992 19.3539 14.6929 19.4154C14.4425 19.5544 14.1851 19.7002 13.9111 19.805L13.2639 20.0692L12.8741 20.1945C12.5387 20.3153 12.1891 20.3836 11.9104 20.4405L11.3034 20.5476V22.099C11.3034 22.2265 11.2231 22.3427 11.0979 22.3928C11.0577 22.4088 11.0152 22.4156 10.9727 22.4156C10.8877 22.4156 10.8026 22.3837 10.7388 22.3245L7.90202 19.5886C7.84061 19.527 7.80518 19.4473 7.80518 19.363C7.80518 19.2787 7.84061 19.199 7.90202 19.1375L10.7388 16.4016C10.8333 16.3104 10.9751 16.2854 11.0979 16.3332C11.2231 16.3833 11.3034 16.4995 11.3034 16.6271V18.1101L11.3506 18.1124L11.7002 18.0873C11.8868 18.0759 12.0781 18.0645 12.2954 18.0213L12.7253 17.9506L13.16 17.8322C13.3631 17.7912 13.5521 17.7183 13.7528 17.6408C13.8591 17.5998 13.9678 17.5565 14.0812 17.5178C14.1685 17.4745 14.2583 17.4312 14.3504 17.388C14.5701 17.2832 14.7969 17.1761 14.9953 17.0417C15.2527 16.8982 15.47 16.7364 15.6992 16.5633C15.7677 16.5132 15.8385 16.4608 15.907 16.4084C15.9708 16.3514 16.0346 16.2945 16.0983 16.2375C16.3133 16.0416 16.5188 15.8594 16.6889 15.6544C16.8849 15.4562 17.0314 15.2557 17.1873 15.0461C17.2463 14.9641 17.3054 14.8844 17.3644 14.8046C17.4235 14.7021 17.4849 14.6042 17.5463 14.5062C17.6667 14.3103 17.7801 14.1281 17.8557 13.9458L18.0636 13.5016L18.2124 13.0847C18.3092 12.8364 18.3612 12.6109 18.4132 12.3899L18.536 11.7566L18.6068 11.2144C18.6281 11.0481 18.7864 10.9274 18.9517 10.9365C19.1218 10.9456 19.2588 11.08 19.2635 11.2463L19.2848 12.0892Z" fill="#FECC00"/>
</svg>
