<svg width="25" height="25" viewBox="0 0 25 25" fill="none" xmlns="http://www.w3.org/2000/svg">
<path d="M24.5028 12.5014C24.5028 15.1184 23.6644 17.5396 22.2415 19.5114C20.0629 22.5338 16.511 24.5 12.5014 24.5C8.49173 24.5 4.93985 22.5338 2.76129 19.5114C1.33833 17.5396 0.5 15.1184 0.5 12.5014C0.5 5.87194 5.8747 0.5 12.5014 0.5C19.1281 0.5 24.5028 5.87194 24.5028 12.5014Z" fill="#1E6793"/>
<g filter="url(#filter0_d)">
<path d="M18.1148 9.21345L13.2058 5.94008C12.9869 5.79425 12.7298 5.71643 12.4668 5.71643C12.2038 5.71643 11.9467 5.79425 11.7279 5.94008L6.82094 9.21137C6.64198 9.33029 6.49525 9.49166 6.39383 9.68108C6.29242 9.87051 6.23948 10.0821 6.23975 10.297V18.1535H11.2214V14.0021H13.7122V18.1535H18.6939V10.297C18.6941 10.0826 18.6413 9.87159 18.5403 9.68257C18.4392 9.49355 18.2931 9.3324 18.1148 9.21345ZM17.4485 16.9081H14.9577V13.5869C14.9577 13.3667 14.8702 13.1556 14.7145 12.9998C14.5588 12.8441 14.3476 12.7567 14.1274 12.7567H10.8063C10.5861 12.7567 10.3749 12.8441 10.2192 12.9998C10.0635 13.1556 9.976 13.3667 9.976 13.5869V16.9081H7.48516V10.297C7.48516 10.2876 7.48742 10.2783 7.49176 10.27C7.49609 10.2617 7.50238 10.2546 7.51007 10.2492L12.4191 6.97585C12.4333 6.96656 12.4499 6.96162 12.4668 6.96162C12.4838 6.96162 12.5004 6.96656 12.5146 6.97585L17.4236 10.2492C17.4313 10.2546 17.4376 10.2617 17.4419 10.27C17.4462 10.2783 17.4485 10.2876 17.4485 10.297V16.9081Z" fill="#FFF4C6"/>
<path d="M11.2214 14.0021V18.1535H13.7123V14.0021H11.2214Z" fill="#FECC00"/>
</g>
<defs>
<filter id="filter0_d" x="6.23975" y="5.71643" width="13.4542" height="12.937" filterUnits="userSpaceOnUse" color-interpolation-filters="sRGB">
<feFlood flood-opacity="0" result="BackgroundImageFix"/>
<feColorMatrix in="SourceAlpha" type="matrix" values="0 0 0 0 0 0 0 0 0 0 0 0 0 0 0 0 0 0 127 0"/>
<feOffset dx="1" dy="0.5"/>
<feColorMatrix type="matrix" values="0 0 0 0 0.0901961 0 0 0 0 0.313726 0 0 0 0 0.45098 0 0 0 1 0"/>
<feBlend mode="normal" in2="BackgroundImageFix" result="effect1_dropShadow"/>
<feBlend mode="normal" in="SourceGraphic" in2="effect1_dropShadow" result="shape"/>
</filter>
</defs>
</svg>
