<svg width="17" height="17" viewBox="0 0 17 17" fill="none" xmlns="http://www.w3.org/2000/svg">
<path fill-rule="evenodd" clip-rule="evenodd" d="M2.20703 8.50781C2.20703 5.05636 5.00558 2.25781 8.45703 2.25781C11.9085 2.25781 14.707 5.05636 14.707 8.50781C14.707 11.9593 11.9085 14.7578 8.45703 14.7578C5.00558 14.7578 2.20703 11.9593 2.20703 8.50781ZM8.45703 3.25781C5.55786 3.25781 3.20703 5.60864 3.20703 8.50781C3.20703 11.407 5.55786 13.7578 8.45703 13.7578C11.3562 13.7578 13.707 11.407 13.707 8.50781C13.707 5.60864 11.3562 3.25781 8.45703 3.25781Z" fill="black"/>
<path fill-rule="evenodd" clip-rule="evenodd" d="M7.08203 7.63281C7.08203 7.35667 7.30589 7.13281 7.58203 7.13281H8.58203C8.85817 7.13281 9.08203 7.35667 9.08203 7.63281V11.2578C9.08203 11.534 8.85817 11.7578 8.58203 11.7578C8.30589 11.7578 8.08203 11.534 8.08203 11.2578V8.13281H7.58203C7.30589 8.13281 7.08203 7.90895 7.08203 7.63281Z" fill="black"/>
<path fill-rule="evenodd" clip-rule="evenodd" d="M6.70703 11.3828C6.70703 11.1067 6.93089 10.8828 7.20703 10.8828H9.95703C10.2332 10.8828 10.457 11.1067 10.457 11.3828C10.457 11.659 10.2332 11.8828 9.95703 11.8828H7.20703C6.93089 11.8828 6.70703 11.659 6.70703 11.3828Z" fill="black"/>
<path d="M8.45703 4.82031C8.29633 4.82031 8.13925 4.86796 8.00563 4.95724C7.87202 5.04652 7.76788 5.17342 7.70638 5.32188C7.64488 5.47035 7.62879 5.63371 7.66014 5.79132C7.69149 5.94893 7.76888 6.09371 7.88251 6.20734C7.99614 6.32097 8.14091 6.39835 8.29852 6.4297C8.45613 6.46105 8.6195 6.44496 8.76796 6.38347C8.91643 6.32197 9.04332 6.21783 9.1326 6.08421C9.22188 5.9506 9.26953 5.79351 9.26953 5.63281C9.26953 5.41732 9.18393 5.21066 9.03155 5.05829C8.87918 4.90591 8.67252 4.82031 8.45703 4.82031Z" fill="black"/>
</svg>
