<svg width="300" height="300" viewBox="0 0 300 300" fill="none" xmlns="http://www.w3.org/2000/svg">
    <path d="M116 208C163.496 208 202 169.496 202 122C202 74.5035 163.496 36 116 36C68.5035 36 30 74.5035 30 122C30 169.496 68.5035 208 116 208Z" fill="#EEF8FE" />
    <path d="M116 208C163.496 208 202 169.496 202 122C202 74.5035 163.496 36 116 36C68.5035 36 30 74.5035 30 122C30 169.496 68.5035 208 116 208Z" fill="#EEF8FE" />
    <path d="M155.655 81.6552C154.632 81.6552 153.608 81.2643 152.827 80.4833L141.515 69.1712C139.953 67.6092 139.953 65.0773 141.515 63.5152C143.077 61.9532 145.609 61.9532 147.171 63.5152L158.483 74.8273C160.045 76.3893 160.045 78.9213 158.483 80.4833C157.702 81.2653 156.679 81.6552 155.655 81.6552V81.6552Z" fill="#BAC7D5" />
    <path d="M144.343 81.6552C143.32 81.6552 142.296 81.2643 141.515 80.4833C139.953 78.9213 139.953 76.3893 141.515 74.8273L152.827 63.5152C154.389 61.9532 156.921 61.9532 158.483 63.5152C160.045 65.0773 160.045 67.6092 158.483 69.1712L147.171 80.4833C146.39 81.2653 145.366 81.6552 144.343 81.6552Z" fill="#BAC7D5" />
    <path d="M194 92C196.209 92 198 90.2091 198 88C198 85.7909 196.209 84 194 84C191.791 84 190 85.7909 190 88C190 90.2091 191.791 92 194 92Z" fill="#BAC7D5" />
    <path d="M182 48C184.209 48 186 46.2091 186 44C186 41.7909 184.209 40 182 40C179.791 40 178 41.7909 178 44C178 46.2091 179.791 48 182 48Z" fill="#BAC7D5" />
    <path d="M242 260H82C75.373 260 70 254.627 70 248V240H254V248C254 254.627 248.627 260 242 260Z" fill="#EEF8FE" />
    <path d="M242 264H82C73.178 264 66 256.822 66 248V240C66 237.791 67.791 236 70 236H254C256.209 236 258 237.791 258 240V248C258 256.822 250.822 264 242 264ZM74 244V248C74 252.412 77.588 256 82 256H242C246.412 256 250 252.412 250 248V244H74Z" fill="#BAC7D5" />
    <path d="M110.76 248H251.046C259.305 248 266.001 241.454 266.001 233.379V124C266.001 115.163 258.838 108 250.001 108H133.143L124.268 89.592C121.59 85.926 117.265 83.75 112.657 83.75H68.089C60.308 83.75 54 89.917 54 97.524V107.214V124.812V233.379C54 241.454 60.695 248 68.955 248H90.102" fill="#EEF8FE" />
    <path d="M251.045 252H110.76C108.551 252 106.76 250.209 106.76 248C106.76 245.791 108.551 244 110.76 244H251.045C257.086 244 262 239.236 262 233.379V124C262 117.383 256.617 112 250 112H133.143C131.608 112 130.207 111.121 129.539 109.736L120.836 91.685C118.902 89.214 115.869 87.749 112.656 87.749H68.088C62.525 87.75 58 92.135 58 97.523V233.378C58 239.236 62.914 244 68.955 244H90.101C92.31 244 94.101 245.791 94.101 248C94.101 250.209 92.31 252 90.101 252H68.955C58.504 252 50 243.646 50 233.379V97.523C50 87.722 58.113 79.75 68.088 79.75H112.656C118.527 79.75 124.076 82.547 127.498 87.232C127.641 87.427 127.766 87.636 127.871 87.855L135.654 104H250C261.027 104 270 112.973 270 124V233.379C270 243.646 261.496 252 251.045 252V252Z" fill="#BAC7D5" />
    <path d="M134 112H106C103.791 112 102 110.209 102 108C102 105.791 103.791 104 106 104H134C136.209 104 138 105.791 138 108C138 110.209 136.209 112 134 112Z" fill="#BAC7D5" />
</svg>
    