<svg width="25" height="25" viewBox="0 0 25 25" fill="none" xmlns="http://www.w3.org/2000/svg">
<path d="M24.5028 12.5014C24.5028 15.1184 23.6644 17.5396 22.2415 19.5114C20.0629 22.5338 16.511 24.5 12.5014 24.5C8.49173 24.5 4.93985 22.5338 2.76129 19.5114C1.33833 17.5396 0.5 15.1184 0.5 12.5014C0.5 5.87194 5.8747 0.5 12.5014 0.5C19.1281 0.5 24.5028 5.87194 24.5028 12.5014Z" fill="#1E6793"/>
<g filter="url(#filter0_d)">
<path fill-rule="evenodd" clip-rule="evenodd" d="M15.8226 8.02265C16.4454 7.66835 16.7628 7.16185 16.7628 6.50074C16.7628 4.86376 15.7206 4.67444 14.9365 4.67444C13.9318 4.67444 12.9727 5.82775 12.5015 6.98836C12.0303 5.82775 11.0715 4.67444 10.0664 4.67444C9.28231 4.67444 8.24011 4.86376 8.24011 6.50074C8.24011 7.16185 8.55758 7.66835 9.18034 8.02265C9.88447 8.35098 10.278 8.46853 10.9796 8.63142H11.5883H13.4146H14.0234C14.7358 8.49268 15.1301 8.36942 15.8226 8.02265ZM10.0664 5.2832C9.2954 5.2832 8.84887 5.48227 8.84887 6.50074C8.84887 7.67687 10.5857 7.9843 12.1733 8.019C12.0038 6.85291 10.9528 5.2832 10.0664 5.2832ZM14.9365 5.2832C14.0502 5.2832 12.9991 6.85291 12.8296 8.019C14.4173 7.9843 16.1541 7.67687 16.1541 6.50074C16.1541 5.48227 15.7075 5.2832 14.9365 5.2832Z" fill="#175073"/>
<path fill-rule="evenodd" clip-rule="evenodd" d="M15.8226 8.02265L19.5023 8.02263C19.6703 8.02263 19.8067 8.15869 19.8067 8.32701V11.9796C19.8067 12.1479 19.6703 12.284 19.5023 12.284H18.2847H14.0234L14.0234 8.63142C14.7358 8.49268 15.1301 8.36942 15.8226 8.02265ZM9.18034 8.02265L5.50067 8.02263C5.33265 8.02263 5.19629 8.15869 5.19629 8.32701V11.9796C5.19629 12.1479 5.33265 12.284 5.50067 12.284H6.7182H10.9796L10.9796 8.63142C10.278 8.46853 9.88447 8.35098 9.18034 8.02265ZM18.2847 18.9804V12.8928H14.0234V18.676H13.4146H11.5883H10.9796V12.8928H6.7182V18.9804C6.7182 19.1487 6.85457 19.2848 7.02259 19.2848H17.9804C18.1484 19.2848 18.2847 19.1487 18.2847 18.9804Z" fill="#175073"/>
<path fill-rule="evenodd" clip-rule="evenodd" d="M11.5883 12.8928V18.676H13.4146V12.8928H11.5883Z" fill="#175073"/>
<path fill-rule="evenodd" clip-rule="evenodd" d="M11.5883 8.63142L11.5883 12.284H13.4146L13.4146 8.63142H11.5883Z" fill="#175073"/>
<path d="M11.5883 8.63142H10.9796L10.9796 12.284H6.7182V12.8928H10.9796V18.676H11.5883V12.8928H13.4146V18.676H14.0234V12.8928H18.2847V12.284H14.0234L14.0234 8.63142H13.4146L13.4146 12.284H11.5883L11.5883 8.63142Z" fill="#175073"/>
<path fill-rule="evenodd" clip-rule="evenodd" d="M15.8225 8.02265C16.4452 7.66835 16.7627 7.16185 16.7627 6.50074C16.7627 4.86376 15.7205 4.67444 14.9364 4.67444C13.9316 4.67444 12.9725 5.82774 12.5013 6.98836C12.0302 5.82774 11.0714 4.67444 10.0663 4.67444C9.2822 4.67444 8.23999 4.86376 8.23999 6.50074C8.23999 7.16185 8.55746 7.66835 9.18023 8.02265C9.88435 8.35098 10.2779 8.46853 10.9794 8.63141H11.5882H13.4145H14.0233C14.7357 8.49267 15.13 8.36942 15.8225 8.02265ZM10.0663 5.2832C9.29529 5.2832 8.84876 5.48227 8.84876 6.50074C8.84876 7.67687 10.5856 7.9843 12.1732 8.019C12.0037 6.85291 10.9527 5.2832 10.0663 5.2832ZM14.9364 5.2832C14.05 5.2832 12.999 6.85291 12.8295 8.019C14.4171 7.9843 16.1539 7.67687 16.1539 6.50074C16.1539 5.48227 15.7074 5.2832 14.9364 5.2832Z" fill="#FECC00"/>
<path fill-rule="evenodd" clip-rule="evenodd" d="M15.8226 8.02258H19.5023C19.6703 8.02258 19.8067 8.15864 19.8067 8.32697V11.9796C19.8067 12.1479 19.6703 12.2839 19.5023 12.2839H18.8935H18.2847H14.0234V8.63135C14.7359 8.49261 15.1301 8.36935 15.8226 8.02258ZM9.18036 8.02258H5.50067C5.33265 8.02258 5.19629 8.15864 5.19629 8.32697V11.9796C5.19629 12.1479 5.33265 12.2839 5.50067 12.2839H6.10944H6.7182H10.9796V8.63135C10.278 8.46847 9.88448 8.35092 9.18036 8.02258ZM18.2847 18.9804V12.8927H14.0234V18.676H13.4146H11.5883H10.9796V12.8927H6.7182V18.9804C6.7182 19.1487 6.85457 19.2847 7.02259 19.2847H17.9804C18.1484 19.2847 18.2847 19.1487 18.2847 18.9804Z" fill="#FFF4C6"/>
<path fill-rule="evenodd" clip-rule="evenodd" d="M11.5884 12.8928V18.6761H13.4147V12.8928H11.5884Z" fill="#FECC00"/>
<path fill-rule="evenodd" clip-rule="evenodd" d="M11.5884 8.63147V12.2841H13.4147V8.63147H11.5884Z" fill="#FECC00"/>
</g>
<defs>
<filter id="filter0_d" x="5.19629" y="4.67444" width="15.1104" height="15.1104" filterUnits="userSpaceOnUse" color-interpolation-filters="sRGB">
<feFlood flood-opacity="0" result="BackgroundImageFix"/>
<feColorMatrix in="SourceAlpha" type="matrix" values="0 0 0 0 0 0 0 0 0 0 0 0 0 0 0 0 0 0 127 0"/>
<feOffset dx="0.5" dy="0.5"/>
<feColorMatrix type="matrix" values="0 0 0 0 0.0901961 0 0 0 0 0.313726 0 0 0 0 0.45098 0 0 0 1 0"/>
<feBlend mode="normal" in2="BackgroundImageFix" result="effect1_dropShadow"/>
<feBlend mode="normal" in="SourceGraphic" in2="effect1_dropShadow" result="shape"/>
</filter>
</defs>
</svg>
