<svg width="18" height="19" viewBox="0 0 18 19" fill="none" xmlns="http://www.w3.org/2000/svg">
<path d="M17.2891 16.5424L14.2117 13.336C16.6146 10.1075 16.3617 5.50802 13.6004 2.61121C12.146 1.08541 10.2068 0.245117 8.14116 0.245117C6.07549 0.245117 4.13629 1.08541 2.68189 2.61121C1.22749 4.13701 0.426514 6.17141 0.426514 8.33848C0.426514 10.5056 1.22749 12.54 2.68189 14.0658C4.13629 15.5916 6.07549 16.4318 8.14116 16.4318C9.8485 16.4318 11.5348 15.8348 12.8838 14.707L15.9401 17.9576C16.1298 18.1567 16.3617 18.2451 16.6146 18.2451C16.8676 18.2451 17.0994 18.1346 17.2891 17.9576C17.6685 17.5817 17.6685 16.9404 17.2891 16.5424ZM13.9588 8.33848C13.9588 9.97485 13.3475 11.5006 12.2514 12.6505C11.1553 13.8004 9.67987 14.4417 8.14116 14.4417C6.60244 14.4417 5.12697 13.8004 4.0309 12.6505C2.93483 11.5006 2.32356 9.95273 2.32356 8.33848C2.32356 6.70212 2.93483 5.17632 4.0309 4.02644C5.12697 2.87657 6.60244 2.23529 8.14116 2.23529C9.70095 2.23529 11.1553 2.87657 12.2514 4.02644C13.3475 5.17632 13.9588 6.70212 13.9588 8.33848Z" fill="black"/>
</svg>
