<svg width="71" height="24" viewBox="0 0 71 24" fill="none" xmlns="http://www.w3.org/2000/svg">
<path d="M2.1 6.66699C1.21634 6.66699 0.5 7.38334 0.5 8.26699V15.7337C0.5 16.6173 1.21634 17.3337 2.1 17.3337H14.9C15.7837 17.3337 16.5 16.6173 16.5 15.7337V8.26699C16.5 7.38334 15.7837 6.66699 14.9 6.66699H2.1Z" fill="#E8112D"/>
<path d="M2.1 6.66699C1.21634 6.66699 0.5 7.38334 0.5 8.26699V12.0003H16.5L16.5 8.26699C16.5 7.38334 15.7837 6.66699 14.9 6.66699H2.1Z" fill="#FCD116"/>
<path d="M2.1 6.66699C1.21634 6.66699 0.5 7.38334 0.5 8.26699V15.7337C0.5 16.6173 1.21634 17.3337 2.1 17.3337L6.9 17.3337V6.66699H2.1Z" fill="#008751"/>
<path d="M24.388 16.128V12.618H21.112V11.502H24.388V7.992H25.558V11.502H28.834V12.618H25.558V16.128H24.388ZM29.9673 18V17.118C30.8313 16.254 31.5993 15.474 32.2713 14.778C32.9433 14.082 33.5073 13.44 33.9633 12.852C34.4193 12.252 34.7673 11.706 35.0073 11.214C35.2473 10.71 35.3673 10.224 35.3673 9.756C35.3673 9.096 35.1873 8.556 34.8273 8.136C34.4673 7.716 33.9213 7.506 33.1893 7.506C32.7093 7.506 32.2653 7.644 31.8573 7.92C31.4493 8.184 31.0773 8.508 30.7413 8.892L29.8953 8.046C30.3753 7.518 30.8853 7.098 31.4253 6.786C31.9653 6.462 32.6133 6.3 33.3693 6.3C34.4373 6.3 35.2773 6.612 35.8893 7.236C36.5013 7.848 36.8073 8.664 36.8073 9.684C36.8073 10.224 36.6873 10.77 36.4473 11.322C36.2193 11.862 35.8953 12.426 35.4753 13.014C35.0673 13.59 34.5753 14.196 33.9993 14.832C33.4353 15.456 32.8113 16.122 32.1273 16.83C32.4393 16.806 32.7633 16.782 33.0993 16.758C33.4353 16.734 33.7533 16.722 34.0533 16.722H37.3833V18H29.9673ZM38.7145 18V17.118C39.5785 16.254 40.3465 15.474 41.0185 14.778C41.6905 14.082 42.2545 13.44 42.7105 12.852C43.1665 12.252 43.5145 11.706 43.7545 11.214C43.9945 10.71 44.1145 10.224 44.1145 9.756C44.1145 9.096 43.9345 8.556 43.5745 8.136C43.2145 7.716 42.6685 7.506 41.9365 7.506C41.4565 7.506 41.0125 7.644 40.6045 7.92C40.1965 8.184 39.8245 8.508 39.4885 8.892L38.6425 8.046C39.1225 7.518 39.6325 7.098 40.1725 6.786C40.7125 6.462 41.3605 6.3 42.1165 6.3C43.1845 6.3 44.0245 6.612 44.6365 7.236C45.2485 7.848 45.5545 8.664 45.5545 9.684C45.5545 10.224 45.4345 10.77 45.1945 11.322C44.9665 11.862 44.6425 12.426 44.2225 13.014C43.8145 13.59 43.3225 14.196 42.7465 14.832C42.1825 15.456 41.5585 16.122 40.8745 16.83C41.1865 16.806 41.5105 16.782 41.8465 16.758C42.1825 16.734 42.5005 16.722 42.8005 16.722H46.1305V18H38.7145ZM50.9718 12.42C51.3558 12.42 51.7578 12.3 52.1778 12.06C52.6098 11.82 53.0118 11.43 53.3838 10.89C53.2878 9.762 53.0238 8.91 52.5918 8.334C52.1598 7.758 51.5778 7.47 50.8458 7.47C50.5698 7.47 50.3058 7.53 50.0538 7.65C49.8138 7.77 49.6038 7.944 49.4238 8.172C49.2438 8.388 49.0998 8.652 48.9918 8.964C48.8958 9.276 48.8478 9.618 48.8478 9.99C48.8478 10.746 49.0218 11.34 49.3698 11.772C49.7178 12.204 50.2518 12.42 50.9718 12.42ZM50.4318 18.216C49.8198 18.216 49.2798 18.102 48.8118 17.874C48.3558 17.646 47.9718 17.358 47.6598 17.01L48.4878 16.074C48.7278 16.35 49.0098 16.572 49.3338 16.74C49.6698 16.908 50.0178 16.992 50.3778 16.992C50.7858 16.992 51.1698 16.908 51.5298 16.74C51.8898 16.572 52.2078 16.296 52.4838 15.912C52.7598 15.516 52.9818 15.006 53.1498 14.382C53.3178 13.758 53.4078 12.984 53.4198 12.06C53.0598 12.516 52.6398 12.876 52.1598 13.14C51.6798 13.404 51.1998 13.536 50.7198 13.536C49.7238 13.536 48.9318 13.242 48.3438 12.654C47.7558 12.066 47.4618 11.178 47.4618 9.99C47.4618 9.438 47.5518 8.94 47.7318 8.496C47.9118 8.04 48.1518 7.65 48.4518 7.326C48.7638 7.002 49.1238 6.75 49.5318 6.57C49.9518 6.39 50.3898 6.3 50.8458 6.3C51.4098 6.3 51.9318 6.414 52.4118 6.642C52.9038 6.87 53.3238 7.218 53.6718 7.686C54.0318 8.142 54.3078 8.718 54.4998 9.414C54.7038 10.098 54.8058 10.902 54.8058 11.826C54.8058 12.978 54.6858 13.962 54.4458 14.778C54.2058 15.582 53.8818 16.242 53.4738 16.758C53.0658 17.262 52.5978 17.634 52.0698 17.874C51.5538 18.102 51.0078 18.216 50.4318 18.216Z" fill="#333333"/>
<path d="M61.4375 10.1825L62.1298 9.5L65.5 12.83L68.8778 9.5L69.5625 10.175L65.8423 13.8425L65.5 14.1875L65.1577 13.8425L61.4375 10.1825Z" fill="black"/>
</svg>
