<svg width="25" height="25" viewBox="0 0 25 25" fill="none" xmlns="http://www.w3.org/2000/svg">
<circle cx="12.5" cy="12.5" r="12" fill="#1E6793"/>
<path d="M5.50127 7.48184C5.78827 6.75241 6.38255 6.26846 6.9628 5.81412C7.87138 5.10339 9.32823 5.66605 9.68855 6.82644C9.88118 7.44599 10.0559 8.07334 10.1955 8.70692C10.3351 9.3366 10.1838 9.93822 9.67451 10.3365C9.12234 10.7682 9.13872 11.1945 9.40076 11.7766C10.2867 13.7451 11.7241 15.0879 13.7659 15.7924C13.9928 15.8703 14.1418 15.843 14.3243 15.6669C14.6167 15.384 14.9248 15.0754 15.2882 14.9219C15.6088 14.7871 16.0244 14.7808 16.377 14.8409C16.9775 14.9437 17.5694 15.1206 18.152 15.3069C19.5441 15.7534 19.9559 17.4726 18.9311 18.361C18.79 18.4833 18.6472 18.6119 18.5342 18.76C18.0389 19.4068 17.3815 19.5448 16.6031 19.4886C10.8662 19.0741 6.40985 14.9468 5.59642 9.27114C5.56834 9.07475 5.53246 8.87914 5.50049 8.68354C5.50127 8.28297 5.50127 7.88241 5.50127 7.48184Z" fill="#FECC00"/>
</svg>
