<svg width="25" height="25" viewBox="0 0 25 25" fill="none" xmlns="http://www.w3.org/2000/svg">
<g clip-path="url(#clip0)">
<path d="M24.5028 12.5014C24.5028 15.1184 23.6644 17.5396 22.2415 19.5114C20.0629 22.5338 16.511 24.5 12.5014 24.5C8.49173 24.5 4.93985 22.5338 2.76129 19.5114C1.33833 17.5396 0.5 15.1184 0.5 12.5014C0.5 5.87194 5.8747 0.5 12.5014 0.5C19.1281 0.5 24.5028 5.87194 24.5028 12.5014Z" fill="#1E6793"/>
<path d="M7.92339 6.7616C7.9211 6.7616 7.9211 6.7616 7.92339 6.7616C7.78598 6.7616 7.65773 6.81427 7.56155 6.91046C7.46307 7.00893 7.4104 7.13718 7.4104 7.27688V15.0152C7.4104 15.2992 7.6417 15.5305 7.92797 15.5305C9.13029 15.5328 11.141 15.7847 12.5311 17.2366V9.13875C12.5311 9.04257 12.5059 8.95325 12.4601 8.87768C11.3174 7.04328 9.12571 6.76389 7.92339 6.7616Z" fill="#FFF4C6"/>
<path d="M18.4466 15.0152V7.27688C18.4466 7.13947 18.3916 7.00893 18.2954 6.91046C18.1992 6.81427 18.071 6.7616 17.9336 6.7616C17.9336 6.7616 17.9336 6.7616 17.9313 6.7616C16.7267 6.76389 14.5373 7.04328 13.3991 8.87768C13.3533 8.95325 13.3281 9.04257 13.3281 9.13875V17.2366C14.7159 15.7847 16.729 15.5328 17.9313 15.5305C18.2153 15.5305 18.4466 15.2992 18.4466 15.0152Z" fill="#FFF4C6"/>
<path d="M19.6215 8.54565H19.2482V15.0153C19.2482 15.7389 18.6573 16.3298 17.9314 16.3321C16.9123 16.3344 15.2313 16.5336 14.0427 17.6604C16.1016 17.1565 18.2703 17.484 19.507 17.7657C19.6604 17.8001 19.8207 17.7634 19.9444 17.6649C20.0681 17.5665 20.139 17.4199 20.139 17.2619V9.06322C20.139 8.77696 19.9077 8.54565 19.6215 8.54565Z" fill="#FECC00"/>
<path d="M6.60659 15.0153V8.54565H6.2333C5.94932 8.54565 5.71802 8.77696 5.71802 9.06093V17.2619C5.71802 17.4199 5.78901 17.5665 5.91268 17.6649C6.03635 17.7634 6.19665 17.8001 6.35009 17.7657C7.58676 17.484 9.75551 17.1565 11.8143 17.6604C10.6235 16.5336 8.94481 16.3344 7.9257 16.3321C7.19744 16.3321 6.60659 15.7412 6.60659 15.0153Z" fill="#FECC00"/>
</g>
<defs>
<clipPath id="clip0">
<rect width="24.0028" height="24" fill="white" transform="translate(0.5 0.5)"/>
</clipPath>
</defs>
</svg>
