<svg width="23" height="24" viewBox="0 0 23 24" fill="none" xmlns="http://www.w3.org/2000/svg">
<path d="M23 11.7451C23 14.2528 22.1967 16.5729 20.8332 18.4623C18.7456 21.3584 15.3421 23.2425 11.5 23.2425C7.65786 23.2425 4.25437 21.3584 2.16682 18.4623C0.803309 16.5729 0 14.2528 0 11.7451C0 5.39264 5.15016 0.245117 11.5 0.245117C17.8498 0.245117 23 5.39264 23 11.7451Z" fill="#1E6793"/>
<path d="M20.8332 18.4622C18.7457 21.3584 15.3422 23.2424 11.5001 23.2424C7.65791 23.2424 4.25442 21.3584 2.16687 18.4622C4.25706 15.5661 7.65791 13.682 11.5001 13.682C15.3422 13.682 18.743 15.5661 20.8332 18.4622Z" fill="#55CEFF"/>
<path d="M11.5 13.0135C13.5052 13.0135 15.1308 11.388 15.1308 9.38276C15.1308 7.37755 13.5052 5.75201 11.5 5.75201C9.4948 5.75201 7.86926 7.37755 7.86926 9.38276C7.86926 11.388 9.4948 13.0135 11.5 13.0135Z" fill="#FFF4C6"/>
</svg>
