<svg width="25" height="25" viewBox="0 0 25 25" fill="none" xmlns="http://www.w3.org/2000/svg">
<path d="M24.5028 12.5014C24.5028 15.1184 23.6644 17.5396 22.2415 19.5114C20.0629 22.5338 16.511 24.5 12.5014 24.5C8.49173 24.5 4.93985 22.5338 2.76129 19.5114C1.33833 17.5396 0.5 15.1184 0.5 12.5014C0.5 5.87194 5.8747 0.5 12.5014 0.5C19.1281 0.5 24.5028 5.87194 24.5028 12.5014Z" fill="#1E6793"/>
<path d="M18.7558 18.265H6.24979C5.80029 18.265 5.43628 17.901 5.43628 17.4515V11.2798H19.5693V17.4515C19.5693 17.901 19.2053 18.265 18.7558 18.265Z" fill="#FFF4C6"/>
<path d="M18.6896 11.277V16.671C18.6896 17.0653 18.3698 17.3852 17.9754 17.3852H5.43628V17.4486C5.43628 17.8981 5.80029 18.2622 6.24979 18.2622H18.7558C19.2053 18.2622 19.5693 17.8981 19.5693 17.4486V11.277H18.6896Z" fill="#064156"/>
<path d="M18.6924 11.2798H5.43628V12.4297H18.6924V11.2798Z" fill="#064156"/>
<path d="M10.3367 9.33559V7.55965C10.3367 7.5431 10.3505 7.52932 10.3698 7.52932H14.6387C14.6552 7.52932 14.669 7.5431 14.669 7.55965V9.33835L15.4632 9.33007V7.55965C15.4632 7.10464 15.0937 6.73511 14.6387 6.73511H10.367C9.91201 6.73511 9.54248 7.10464 9.54248 7.55965V9.33835H10.3367V9.33559Z" fill="#FFF4C6"/>
<path d="M19.8671 11.6658H5.1356C5.00323 11.6658 4.89844 11.5583 4.89844 11.4286V9.96708C4.89844 9.51758 5.26245 9.15356 5.71195 9.15356H19.2935C19.743 9.15356 20.107 9.51758 20.107 9.96708V11.4259C20.107 11.5583 19.9994 11.6658 19.8671 11.6658Z" fill="#FFF4C6"/>
<path d="M19.2934 9.15356H18.4165C18.866 9.15356 19.23 9.51758 19.23 9.96432V11.4231C19.23 11.5555 19.1225 11.6603 18.9929 11.6603H19.8698C20.0022 11.6603 20.107 11.5527 20.107 11.4231V9.96432C20.1042 9.51758 19.7402 9.15356 19.2934 9.15356Z" fill="#064156"/>
<path d="M9.1011 13.1494H8.11109C7.92633 13.1494 7.77466 13.0005 7.77466 12.8157V10.9929C7.77466 10.8082 7.92357 10.6565 8.11109 10.6565H9.1011C9.28586 10.6565 9.43753 10.8054 9.43753 10.9929V12.8157C9.43478 12.9978 9.28586 13.1494 9.1011 13.1494Z" fill="#F9D673"/>
<path d="M16.8943 13.1494H15.9043C15.7195 13.1494 15.5679 13.0005 15.5679 12.8129V10.9901C15.5679 10.8054 15.7168 10.6537 15.9043 10.6537H16.8943C17.0791 10.6537 17.2307 10.8054 17.2307 10.9901V12.8129C17.2307 12.9977 17.0791 13.1494 16.8943 13.1494Z" fill="#F9D673"/>
<path d="M16.8943 10.6565H16.3538V13.1494H16.8943C17.079 13.1494 17.2307 12.9978 17.2307 12.813V10.9902C17.2307 10.8054 17.079 10.6565 16.8943 10.6565Z" fill="#FFCB00"/>
<path d="M9.10105 10.6565H8.56055V13.1494H9.10105C9.28581 13.1494 9.43749 13.0005 9.43749 12.813V10.9902C9.43473 10.8054 9.28581 10.6565 9.10105 10.6565Z" fill="#FFCB00"/>
</svg>
