<svg width="24" height="25" viewBox="0 0 24 25" fill="none" xmlns="http://www.w3.org/2000/svg">
<path d="M2.95004 19.2928L10.9389 4.45687C11.5052 3.405 13.0136 3.405 13.5803 4.45687L21.5688 19.2928C21.6917 19.5212 21.7534 19.7775 21.7477 20.0368C21.742 20.2961 21.6692 20.5494 21.5364 20.7722C21.4035 20.9949 21.2152 21.1794 20.9898 21.3077C20.7644 21.4359 20.5095 21.5035 20.2502 21.5039H4.27097C4.01143 21.5039 3.75631 21.4366 3.53057 21.3085C3.30483 21.1805 3.11618 20.996 2.98307 20.7732C2.84995 20.5504 2.77694 20.2968 2.77115 20.0374C2.76536 19.7779 2.827 19.5213 2.95004 19.2928ZM12.2594 19.207C12.4448 19.207 12.6261 19.152 12.7803 19.049C12.9344 18.946 13.0546 18.7996 13.1255 18.6283C13.1965 18.457 13.2151 18.2685 13.1789 18.0866C13.1427 17.9048 13.0534 17.7377 12.9223 17.6066C12.7912 17.4755 12.6242 17.3862 12.4423 17.35C12.2605 17.3139 12.072 17.3324 11.9006 17.4034C11.7293 17.4743 11.5829 17.5945 11.4799 17.7487C11.3769 17.9029 11.3219 18.0841 11.3219 18.2695C11.3219 18.3926 11.3462 18.5146 11.3933 18.6283C11.4404 18.742 11.5094 18.8454 11.5965 18.9324C11.6836 19.0195 11.7869 19.0886 11.9006 19.1357C12.0144 19.1828 12.1363 19.207 12.2594 19.207ZM11.2413 9.77812L11.5103 15.4969C11.5103 15.6958 11.5894 15.8865 11.73 16.0272C11.8707 16.1679 12.0614 16.2469 12.2603 16.2469C12.4593 16.2469 12.65 16.1679 12.7907 16.0272C12.9313 15.8865 13.0103 15.6958 13.0103 15.4969L13.2794 9.78047C13.2855 9.64387 13.2639 9.50745 13.2161 9.37934C13.1683 9.25124 13.0952 9.13407 13.0012 9.03482C12.9071 8.93556 12.7941 8.85626 12.6687 8.80164C12.5434 8.74701 12.4083 8.71819 12.2716 8.71687H12.2618C12.1241 8.7168 11.9879 8.74462 11.8612 8.79865C11.7346 8.85269 11.6203 8.93181 11.5251 9.03125C11.4299 9.13069 11.3558 9.24839 11.3074 9.37723C11.2589 9.50608 11.2371 9.64341 11.2432 9.78094L11.2413 9.77812Z" fill="#FECC00"/>
</svg>
